<svg width="50" height="41" viewBox="0 0 50 41" fill="none" xmlns="http://www.w3.org/2000/svg">
<path d="M9.32446 22.2839C9.09039 21.6408 8.50391 21.419 7.70503 21.7098C7.39431 21.8229 7.18376 21.9231 7.08085 21.9958L7.83282 24.0618C7.97918 24.0438 8.13875 23.9975 8.37677 23.9109C9.21806 23.6047 9.58183 22.991 9.32446 22.2839Z" fill="#C5E0ED"/>
<path d="M23.45 12.8129L22.8631 13.0265L21.8327 10.1953C21.8258 10.1778 21.8176 10.1608 21.8083 10.1444C21.7678 10.0302 21.6873 9.93452 21.5818 9.87498L14.9122 6.2087L14.9075 6.20649C14.8682 6.1863 14.8265 6.17119 14.7833 6.16152L14.7452 6.15382C14.7093 6.14807 14.6728 6.14623 14.6364 6.14834L14.6073 6.14914C14.5681 6.15326 14.5295 6.16204 14.4923 6.1753L2.91422 10.3894C2.38538 10.5819 2.11265 11.1683 2.30482 11.6963L5.13689 19.4773L4.55006 19.6909C3.7936 19.9662 3.40384 20.8021 3.67918 21.5585L6.2712 28.6801C6.54622 29.4357 7.38236 29.8263 8.13883 29.5509L8.72565 29.3374L10.4999 34.212C10.692 34.74 11.2779 35.0139 11.8067 34.8214L27.6164 29.0671C28.1444 28.875 28.418 28.2883 28.2258 27.7603L26.4516 22.8857L27.0384 22.6721C27.7949 22.3967 28.1846 21.5609 27.9093 20.8044L25.3173 13.6829C25.0422 12.9273 24.2056 12.5379 23.45 12.8129ZM3.26327 11.3484L14.3619 7.30882L16.1462 12.2111C16.2426 12.476 16.5353 12.6125 16.8002 12.5161L21.0326 10.9757L21.9062 13.3758L6.09565 19.1303L3.26327 11.3484ZM14.3423 23.5262L15.1093 25.6338L13.657 26.1624L11.1103 19.1655L12.9582 18.4929L15.344 20.5289C16.027 21.1154 16.749 21.8387 17.3586 22.5117L17.3785 22.5045C16.9497 21.6147 16.5737 20.6812 16.1884 19.6226L15.4478 17.5878L16.901 17.0589L19.4477 24.0557L17.7876 24.66L15.3222 22.5158L15.3106 22.5053C14.62 21.898 13.827 21.1761 13.1969 20.4762L13.1553 20.4913C13.5468 21.4055 13.9267 22.3846 14.3423 23.5262ZM8.27552 25.2756L9.18972 27.7874L7.62226 28.3579L5.10993 21.4553C5.56698 21.1949 6.22893 20.8834 7.19485 20.5318C8.17116 20.1765 8.93509 20.1101 9.54148 20.3246C10.1229 20.5002 10.6254 20.976 10.8746 21.6606C11.1279 22.3565 11.1215 23.0175 10.8352 23.5559C10.4774 24.2507 9.76462 24.7807 8.83072 25.1206C8.65144 25.1911 8.4654 25.2431 8.27552 25.2756ZM27.1738 27.8511L11.3641 33.6053L9.6841 28.9895L25.4938 23.2352L27.1738 27.8511ZM26.5504 21.105C26.1227 21.4488 25.2823 22.0135 24.3588 22.3496C23.0813 22.8146 22.0406 22.8287 21.1748 22.4509C20.3182 22.0687 19.6324 21.2832 19.2585 20.2558C18.4224 17.9264 19.6309 15.9819 21.9246 15.1471C22.8282 14.8182 23.5874 14.7418 23.9869 14.7729L24.1195 16.1714C23.671 16.1347 23.1591 16.1798 22.3905 16.4596C21.0723 16.9393 20.3367 18.053 20.8883 19.5685C21.4175 21.0226 22.6371 21.5295 23.9345 21.0573C24.2868 20.9291 24.5625 20.7817 24.6694 20.6849L24.1329 19.2109L23.0528 19.6041L22.6029 18.3681L25.209 17.4196L26.5504 21.105Z" fill="#C5E0ED"/>
<path d="M27.4374 1.61521L48.8526 10.2675L36.9013 39.8481L15.4861 31.1958L27.4374 1.61521Z" fill="#F4F7FA"/>
<path d="M43.759 18.6367L39.9914 9.76062C39.9475 9.64027 39.8781 9.53088 39.7879 9.44C39.6976 9.34912 39.5887 9.27892 39.4686 9.23427L30.4374 5.58542C29.9582 5.39348 29.4226 5.39896 28.9474 5.60065C28.4723 5.80234 28.0962 6.18387 27.9014 6.6619L19.1442 28.3368C18.9523 28.816 18.9577 29.3517 19.1594 29.8268C19.3611 30.302 19.7426 30.678 20.2207 30.8728L34.6706 36.711C35.1498 36.9029 35.6854 36.8974 36.1606 36.6957C36.6358 36.494 37.0118 36.1125 37.2066 35.6345L43.7745 19.3783C43.8258 19.2609 43.851 19.1338 43.8483 19.0058C43.8456 18.8777 43.8151 18.7518 43.759 18.6367ZM38.5929 11.4018L41.607 18.5026L36.5496 16.4592L38.5929 11.4018ZM35.4004 34.9047L20.9504 29.0666L29.7077 7.39166L36.9326 10.3107L34.7433 15.7295C34.5514 16.2087 34.5569 16.7443 34.7586 17.2195C34.9602 17.6946 35.3418 18.0707 35.8198 18.2655L41.2385 20.4548L35.4004 34.9047Z" fill="#4CA7CE" fill-opacity="0.3"/>
</svg>
