<svg width="84" height="61" viewBox="0 0 84 61" fill="none" xmlns="http://www.w3.org/2000/svg">
<path d="M36.7334 0.741636C37.155 0.545059 37.6063 0.529013 38.0874 0.693498C38.5369 0.857124 38.863 1.15611 39.0655 1.59044L53.2191 31.9429C53.4216 32.3773 53.4411 32.8192 53.2775 33.2688C53.0942 33.743 52.7919 34.0784 52.3703 34.275L26.8083 46.1948C26.3867 46.3914 25.9354 46.4074 25.4543 46.2429C25.0048 46.0793 24.6787 45.7803 24.4762 45.346L21.8671 39.7507L13.8766 43.4767C13.455 43.6733 13.0067 43.6958 12.5316 43.544C12.0701 43.3549 11.7411 43.0495 11.5445 42.6279L4.09239 26.6469C3.89582 26.2253 3.87338 25.777 4.02509 25.3019C4.21427 24.8404 4.51964 24.5114 4.9412 24.3148L12.9317 20.5888L10.3226 14.9935C10.1201 14.5591 10.1006 14.1172 10.2642 13.6676C10.4475 13.1934 10.7498 12.858 11.1714 12.6614M18.3466 32.2009L22.5913 35.4005L26.0213 33.801L19.3692 29.3912L20.235 21.5923L16.9583 23.1203L16.6656 27.9458L16.6426 28.0965L16.6476 28.2574C15.9998 27.7352 15.3234 27.2186 14.6185 26.7075C13.9834 26.1793 13.3262 25.6537 12.6468 25.1307L9.17852 26.748L15.6505 31.1719L14.5816 39.1354L17.9924 37.545M37.2843 38.3937L35.0505 33.6032L24.2623 38.6338L26.4962 43.4243M33.9336 31.2079L31.1457 25.2294L27.5433 26.9093L30.3311 32.8878M30.0288 22.8342L27.2321 16.8365L23.6296 18.5163L26.4264 24.514M26.1151 14.4412L23.8813 9.65075L13.0931 14.6814L15.327 19.4718M50.4486 32.2551L48.2147 27.4646L37.4457 32.4863L39.6796 37.2767M47.0978 25.0693L44.31 19.0908L33.541 24.1125L36.3288 30.091M43.1931 16.6956L40.3963 10.6979L29.6273 15.7196L32.4241 21.7172M39.2794 8.30265L37.0455 3.51216L26.2765 8.53383L28.5104 13.3243L39.2794 8.30265Z" fill="#4CA7CE" fill-opacity="0.3"/>
<path d="M50.4913 2.36896L81.8992 15.0586L64.3712 58.4419L32.9632 45.7523L50.4913 2.36896Z" fill="#F4F7FA"/>
<path d="M74.4288 27.3329L68.9031 14.3151C68.8388 14.1386 68.737 13.9782 68.6046 13.8449C68.4723 13.7116 68.3125 13.6087 68.1365 13.5432L54.8911 8.19173C54.1884 7.91023 53.4027 7.91826 52.7059 8.21406C52.009 8.50987 51.4575 9.06942 51.1718 9.7705L38.3283 41.5593C38.0468 42.262 38.0548 43.0477 38.3506 43.7445C38.6464 44.4414 39.206 44.9929 39.9071 45.2786L61.0996 53.8409C61.8024 54.1225 62.588 54.1144 63.2848 53.8186C63.9817 53.5228 64.5332 52.9633 64.8189 52.2622L74.4515 28.4206C74.5267 28.2485 74.5636 28.062 74.5597 27.8742C74.5558 27.6864 74.5111 27.5017 74.4288 27.3329ZM66.8521 16.7221L71.2727 27.1363L63.8553 24.1394L66.8521 16.7221ZM62.1699 51.1919L40.9774 42.6296L53.8208 10.8408L64.4171 15.122L61.2062 23.0691C60.9247 23.7719 60.9328 24.5575 61.2286 25.2544C61.5244 25.9513 62.0839 26.5028 62.785 26.7885L70.7322 29.9994L62.1699 51.1919Z" fill="#4CA7CE" fill-opacity="0.3"/>
</svg>
