<svg width="79" height="58" viewBox="0 0 79 58" fill="none" xmlns="http://www.w3.org/2000/svg">
<path fill-rule="evenodd" clip-rule="evenodd" d="M35.0874 0.693454C34.6063 0.528968 34.155 0.545014 33.7334 0.741592L8.1714 12.6614C7.74984 12.8579 7.44745 13.1933 7.26423 13.6676C7.10061 14.1171 7.12006 14.5591 7.3226 14.9934L9.93172 20.5887L1.9412 24.3148C1.51963 24.5113 1.21426 24.8404 1.02509 25.3018C0.873379 25.7769 0.895812 26.2253 1.09239 26.6468L8.54448 42.6279C8.74106 43.0494 9.07008 43.3548 9.53155 43.544C10.0067 43.6957 10.455 43.6733 10.8766 43.4767L18.8671 39.7507L21.4762 45.3459C21.6787 45.7803 22.0048 46.0793 22.4543 46.2429C22.9354 46.4074 23.3867 46.3913 23.8083 46.1947L31.1718 42.7611L32.6234 39.1681L23.4962 43.4242L21.2623 38.6337L32.0505 33.6031L33.5621 36.8448L34.9158 33.4943L34.4457 32.4862L35.5267 31.9821L36.9784 28.3891L33.3288 30.091L30.541 24.1124L40.6018 19.421L42.3557 15.0798L36.0655 1.5904C35.863 1.15606 35.5369 0.85708 35.0874 0.693454ZM19.5913 35.4004L15.3465 32.2008L14.9924 37.5449L11.5816 39.1354L12.6505 31.1718L6.17851 26.748L9.64682 25.1307C10.3262 25.6537 10.9834 26.1793 11.6185 26.7074C12.3234 27.2185 12.9998 27.7352 13.6476 28.2574L13.6426 28.0964L13.6656 27.9457L13.9583 23.1202L17.235 21.5923L16.3692 29.3911L23.0213 33.801L19.5913 35.4004ZM28.1457 25.2294L30.9336 31.2079L27.3311 32.8877L24.5433 26.9092L28.1457 25.2294ZM24.232 16.8364L27.0288 22.8341L23.4264 24.514L20.6296 18.5163L24.232 16.8364ZM20.8813 9.65071L23.1151 14.4412L12.327 19.4718L10.0931 14.6813L20.8813 9.65071ZM37.3963 10.6978L40.1931 16.6955L29.4241 21.7172L26.6273 15.7195L37.3963 10.6978ZM34.0455 3.51212L36.2794 8.3026L25.5104 13.3243L23.2765 8.53379L34.0455 3.51212Z" fill="#4CA7CE" fill-opacity="0.3"/>
<path d="M70.6886 26.6532L65.1629 13.6355C65.0986 13.459 64.9967 13.2985 64.8644 13.1652C64.732 13.032 64.5723 12.929 64.3962 12.8635L51.1509 7.51207C50.4481 7.23057 49.6625 7.2386 48.9656 7.53441C48.2688 7.83021 47.7172 8.38976 47.4315 9.09084L34.5881 40.8796C34.3066 41.5824 34.3146 42.368 34.6104 43.0649C34.9062 43.7618 35.4657 44.3133 36.1668 44.599L57.3593 53.1613C58.0621 53.4428 58.8477 53.4348 59.5446 53.139C60.2415 52.8432 60.793 52.2836 61.0787 51.5825L70.7113 27.7409C70.7865 27.5688 70.8234 27.3824 70.8195 27.1946C70.8156 27.0068 70.7709 26.8221 70.6886 26.6532ZM63.1119 16.0424L67.5324 26.4566L60.1151 23.4598L63.1119 16.0424ZM58.4296 50.5122L37.2371 41.9499L50.0806 10.1611L60.6769 14.4423L57.466 22.3895C57.1845 23.0923 57.1925 23.8779 57.4883 24.5748C57.7841 25.2716 58.3437 25.8232 59.0448 26.1088L66.992 29.3197L58.4296 50.5122Z" fill="#4CA7CE" fill-opacity="0.3"/>
</svg>
